<?xml version="1.0" standalone="no"?>
<!DOCTYPE svg PUBLIC "-//W3C//DTD SVG 20010904//EN"
 "http://www.w3.org/TR/2001/REC-SVG-20010904/DTD/svg10.dtd">
<svg version="1.0" xmlns="http://www.w3.org/2000/svg"
 width="300.000000pt" height="300.000000pt" viewBox="0 0 300.000000 300.000000"
 preserveAspectRatio="xMidYMid meet">
<metadata>
Created by potrace 1.14, written by Peter Selinger 2001-2017
</metadata>
<g transform="translate(0.000000,300.000000) scale(0.100000,-0.100000)"
fill="#000000" stroke="none">
<path d="M1370 2994 c-125 -15 -240 -40 -341 -74 -234 -78 -404 -184 -585
-364 -222 -223 -349 -457 -415 -766 -32 -149 -32 -429 -1 -576 32 -147 65
-244 132 -379 206 -418 582 -706 1050 -806 149 -32 429 -32 576 -1 147 32 244
65 379 132 429 212 723 605 813 1085 25 136 22 408 -6 541 -27 125 -81 282
-132 384 -139 277 -394 531 -673 672 -104 52 -289 113 -402 133 -89 16 -328
27 -395 19z m236 -169 c39 -8 80 -13 92 -10 11 2 26 -3 33 -11 6 -8 18 -14 26
-14 14 0 24 -4 103 -45 48 -25 199 -143 230 -179 14 -17 34 -39 45 -51 27 -28
57 -74 74 -110 30 -68 56 -120 63 -125 12 -9 39 -195 40 -280 1 -65 -28 -193
-58 -255 -19 -38 -34 -75 -34 -81 0 -6 -7 -17 -15 -24 -8 -7 -21 -24 -28 -39
-24 -45 -89 -164 -114 -208 -14 -23 -23 -53 -22 -65 2 -13 -5 -37 -14 -55 -9
-18 -17 -43 -17 -57 0 -14 -5 -37 -12 -53 -6 -15 -12 -34 -14 -41 -1 -8 -10
-22 -18 -31 -9 -10 -13 -20 -10 -24 7 -7 -24 -104 -41 -130 -7 -10 -11 -27 -8
-37 3 -11 0 -34 -7 -52 -7 -18 -14 -79 -15 -135 -1 -57 -7 -109 -12 -115 -9
-13 -16 -68 -17 -135 -1 -18 -4 -33 -8 -33 -4 0 -19 -20 -34 -45 -30 -52 -148
-163 -181 -171 -13 -4 -23 -9 -23 -13 0 -9 -129 -36 -155 -32 -11 1 -34 11
-51 20 -17 10 -47 24 -68 31 -54 17 -186 157 -186 197 0 8 -9 32 -20 53 -11
22 -17 40 -13 40 5 0 -1 7 -11 15 -19 14 -19 15 -1 15 17 0 17 1 -1 21 -16 18
-19 37 -19 139 0 89 -4 121 -15 135 -12 15 -12 17 -1 10 22 -13 8 110 -15 136
-12 13 -13 19 -4 19 9 0 9 4 3 13 -12 14 -32 74 -38 109 -1 13 -6 42 -9 66 -4
24 -11 51 -16 60 -21 38 -60 130 -60 141 0 10 -20 48 -57 106 -7 11 -22 39
-34 63 -12 23 -25 42 -29 42 -5 0 -6 9 -3 20 4 14 0 20 -11 20 -9 0 -16 8 -16
18 0 10 -3 22 -7 26 -4 4 -9 19 -11 34 -2 15 -14 51 -27 79 -34 75 -40 114
-37 231 l3 103 -30 -16 c-17 -8 -31 -11 -31 -6 0 5 13 15 29 22 24 11 30 21
35 60 4 26 14 57 24 70 24 32 43 79 37 89 -3 4 1 10 9 13 15 6 76 92 76 108 0
14 58 86 104 128 21 19 33 37 27 39 -18 6 -12 22 8 22 11 0 32 11 47 25 15 14
33 25 40 25 8 0 14 3 14 8 0 25 213 99 325 112 96 11 116 11 191 -5z"/>
<path d="M1420 2659 c-145 -18 -282 -90 -386 -201 -94 -101 -152 -218 -167
-338 -5 -35 0 -26 22 41 15 47 45 117 66 155 46 83 169 208 240 244 28 14 52
27 55 30 10 11 144 41 204 47 75 7 188 -11 273 -43 173 -64 317 -223 379 -418
13 -41 23 -60 23 -46 0 14 -12 61 -27 106 -98 281 -387 460 -682 423z"/>
<path d="M1066 2633 c-21 -14 -72 -59 -114 -102 -58 -59 -83 -95 -113 -159
-47 -102 -50 -127 -6 -52 84 144 168 241 265 305 23 15 42 28 42 29 0 11 -44
-2 -74 -21z"/>
<path d="M1860 2655 c0 -1 25 -19 55 -40 85 -58 159 -143 240 -273 33 -55 44
-48 14 10 -66 131 -226 299 -290 303 -11 1 -19 1 -19 0z"/>
<path d="M1426 2555 c-16 -9 -35 -14 -41 -11 -18 6 -134 -23 -161 -41 -13 -8
-24 -21 -24 -29 0 -7 -12 -17 -27 -20 -25 -7 -25 -8 -8 -15 17 -6 16 -8 -7 -8
-38 -1 -89 -50 -127 -120 -17 -33 -31 -63 -31 -66 1 -3 -8 -31 -20 -63 -33
-87 -27 -251 12 -357 22 -62 33 -85 40 -85 3 0 4 -8 1 -19 -3 -12 5 -28 23
-44 27 -26 28 -26 53 -7 14 10 44 36 65 59 l39 40 -64 66 -64 67 -2 76 c-2 43
-3 86 -3 96 -1 24 102 130 145 150 24 12 73 15 206 16 96 0 230 0 299 0 114 1
192 -11 177 -27 -4 -3 -147 -5 -319 -4 -171 1 -327 -2 -345 -5 -32 -6 -143
-102 -143 -124 0 -23 30 -6 85 50 l59 59 338 3 338 3 0 -27 c0 -27 -34 -74
-83 -116 -55 -47 -54 -56 14 -122 35 -33 59 -63 55 -67 -4 -4 -30 18 -59 48
-29 30 -64 60 -79 67 -30 12 -38 32 -13 32 17 0 155 134 155 150 0 23 -27 6
-84 -55 l-61 -66 -338 3 c-254 2 -337 0 -337 -9 0 -6 9 -15 20 -18 18 -6 21
-11 19 -32 0 -5 -6 -7 -14 -5 -7 1 -16 -2 -20 -8 -4 -7 102 -10 327 -10 l334
0 59 -61 c46 -46 65 -59 83 -56 16 3 22 -1 22 -14 0 -16 -20 -18 -337 -19
l-338 -1 -69 70 c-62 62 -86 77 -86 52 0 -12 127 -135 150 -145 27 -12 25 -34
-3 -42 -13 -3 -53 -34 -88 -70 -49 -49 -59 -64 -43 -64 11 0 46 26 79 60 l59
60 336 1 c184 1 326 4 315 6 -11 3 -28 11 -38 18 -17 12 -16 14 14 24 36 12
49 8 49 -19 0 -23 28 -34 47 -18 33 27 62 107 69 185 12 145 10 163 -35 288
-39 110 -45 119 -112 185 -79 78 -108 98 -184 129 -93 39 -232 52 -279 26z
m-11 -785 c3 -6 -1 -7 -9 -4 -18 7 -21 14 -7 14 6 0 13 -4 16 -10z"/>
<path d="M776 1890 c10 -91 40 -168 114 -300 92 -162 167 -315 179 -365 l9
-40 1 38 c1 53 -34 133 -143 326 -108 191 -110 195 -142 311 -22 79 -23 81
-18 30z"/>
<path d="M2211 1894 c-3 -58 -51 -174 -131 -314 -112 -195 -151 -279 -156
-333 l-5 -42 19 50 c25 65 69 153 150 295 36 63 75 137 87 165 27 61 49 154
42 180 -4 18 -5 18 -6 -1z"/>
<path d="M911 1800 c0 -14 8 -43 18 -65 30 -64 241 -431 241 -419 0 15 -77
179 -105 224 -28 45 -91 160 -126 230 -22 43 -28 50 -28 30z"/>
<path d="M2044 1733 c-21 -43 -54 -100 -72 -128 -35 -53 -142 -263 -142 -279
0 -19 18 8 85 129 138 246 190 355 172 355 -2 0 -21 -35 -43 -77z"/>
<path d="M1830 1645 l-65 -66 -338 3 c-296 3 -337 1 -335 -12 3 -13 52 -16
343 -20 187 -3 329 -8 315 -12 -14 -4 -144 -8 -290 -8 -146 0 -275 -3 -287 -6
-23 -6 -32 -38 -13 -49 14 -9 37 -65 45 -110 13 -83 17 -101 32 -130 20 -39
71 -93 105 -111 36 -19 163 -19 180 0 11 11 14 11 23 -1 9 -12 19 -13 51 -4
21 5 50 12 64 15 14 3 42 20 63 39 29 25 40 42 41 68 5 59 33 146 75 226 55
105 82 173 71 173 -6 0 -35 -20 -66 -45 -30 -25 -58 -45 -62 -45 -3 0 24 30
61 68 61 61 81 92 59 92 -4 0 -37 -29 -72 -65z m-343 -501 c-3 -3 -12 -4 -19
-1 -8 3 -5 6 6 6 11 1 17 -2 13 -5z"/>
<path d="M1081 1114 c-1 -45 21 -119 43 -144 14 -15 26 -118 15 -123 -7 -2
-14 -108 -10 -154 1 -26 23 -30 40 -9 13 15 42 19 266 36 210 15 354 10 369
-12 24 -39 -6 -45 -269 -62 -317 -20 -364 -21 -371 -1 -11 27 -21 16 -28 -31
-4 -31 -1 -57 8 -78 8 -17 17 -42 20 -56 11 -51 142 -200 206 -234 16 -9 63
-14 126 -15 l101 -2 62 52 c34 28 74 70 90 93 16 22 38 51 49 62 23 25 46 142
30 161 -6 7 -4 13 4 15 10 4 11 13 2 46 -8 29 -8 42 0 45 6 2 10 33 8 81 -1
46 3 86 10 99 7 12 11 30 9 40 -1 10 11 45 28 77 23 43 31 72 30 107 l-1 48
-12 -50 c-15 -61 -30 -91 -64 -127 l-26 -28 -316 0 -316 0 -26 28 c-33 35 -57
83 -68 135 l-8 42 -1 -41z m710 -194 c22 -12 25 -43 7 -57 -15 -11 -613 -47
-628 -38 -14 9 -12 55 3 60 17 5 127 13 372 26 116 6 212 13 214 15 6 6 10 5
32 -6z m7 -102 c15 -15 16 -45 1 -54 -21 -13 -613 -43 -626 -32 -16 13 -17 44
-2 54 46 28 602 57 627 32z m3 -193 c13 -9 11 -41 -3 -52 -15 -12 -612 -48
-627 -38 -6 3 -11 17 -11 30 0 27 0 27 125 45 154 22 489 31 516 15z m2 -112
c16 -10 -21 -59 -139 -185 l-63 -68 -108 0 -109 0 -92 94 c-96 97 -113 131
-69 140 41 9 111 18 187 26 73 8 378 2 393 -7z"/>
<path d="M1186 1115 c-4 -15 0 -37 9 -55 l16 -30 220 0 c144 0 218 3 214 10
-3 6 1 10 9 10 9 0 16 -4 16 -10 0 -6 26 -10 58 -10 56 0 60 2 76 33 12 22 15
39 9 55 -9 23 -9 23 -33 4 -14 -11 -49 -30 -78 -42 -49 -21 -63 -22 -216 -18
-149 4 -169 7 -213 29 -26 13 -52 30 -56 37 -12 19 -24 14 -31 -13z m169 -65
c3 -6 -4 -10 -17 -10 -18 0 -20 2 -8 10 19 12 18 12 25 0z"/>
</g>
</svg>
